{
  "accessors": [
    {
      "bufferView": 2,
      "componentType": 5126,
      "count": 65,
      "max": [
        1.0,
        1.0,
        1.0
      ],
      "min": [
        -1.0,
        -1.0,
        -1.0
      ],
      "type": "VEC3"
    },
    {
      "bufferView": 2,
      "byteOffset": 780,
      "componentType": 5126,
      "count": 65,
      "max": [
        1.0,
        1.0,
        1.0
      ],
      "min": [
        -1.0,
        -1.0,
        -1.0
      ],
      "type": "VEC3"
    },
    {
      "bufferView": 3,
      "componentType": 5126,
      "count": 65,
      "max": [
        1.0,
        1.0,
        1.0,
        1.0
      ],
      "min": [
        -0.3937147557735443,
        -0.8227322697639465,
        -0.8227323889732361,
        1.0
      ],
      "type": "VEC4"
    },
    {
      "bufferView": 1,
      "componentType": 5126,
      "count": 65,
      "max": [
        1.0,
        1.0
      ],
      "min": [
        0.0,
        0.005000010132789612
      ],
      "type": "VEC2"
    },
    {
      "bufferView": 1,
      "byteOffset": 520,
      "componentType": 5126,
      "count": 65,
      "max": [
        1.0,
        1.0
      ],
      "min": [
        0.0,
        0.005000010132789612
      ],
      "type": "VEC2"
    },
    {
      "bufferView": 1,
      "byteOffset": 1040,
      "componentType": 5126,
      "count": 65,
      "max": [
        1.0,
        1.0
      ],
      "min": [
        0.0,
        0.005000010132789612
      ],
      "type": "VEC2"
    },
    {
      "bufferView": 0,
      "componentType": 5125,
      "count": 132,
      "type": "SCALAR"
    },
    {
      "bufferView": 2,
      "byteOffset": 1560,
      "componentType": 5126,
      "count": 65,
      "max": [
        1.0,
        1.0,
        1.0
      ],
      "min": [
        -1.0,
        -1.0,
        -1.0
      ],
      "type": "VEC3"
    },
    {
      "bufferView": 2,
      "byteOffset": 2340,
      "componentType": 5126,
      "count": 65,
      "max": [
        1.0,
        1.0,
        1.0
      ],
      "min": [
        -1.0,
        -1.0,
        -1.0
      ],
      "type": "VEC3"
    },
    {
      "bufferView": 3,
      "byteOffset": 1040,
      "componentType": 5126,
      "count": 65,
      "max": [
        1.0,
        1.0,
        1.0,
        1.0
      ],
      "min": [
        -0.3937147557735443,
        -0.8227322697639465,
        -0.8227323889732361,
        1.0
      ],
      "type": "VEC4"
    },
    {
      "bufferView": 1,
      "byteOffset": 1560,
      "componentType": 5126,
      "count": 65,
      "max": [
        1.0,
        1.0
      ],
      "min": [
        0.0,
        0.005000010132789612
      ],
      "type": "VEC2"
    },
    {
      "bufferView": 1,
      "byteOffset": 2080,
      "componentType": 5126,
      "count": 65,
      "max": [
        1.0,
        1.0
      ],
      "min": [
        0.0,
        0.005000010132789612
      ],
      "type": "VEC2"
    },
    {
      "bufferView": 1,
      "byteOffset": 2600,
      "componentType": 5126,
      "count": 65,
      "max": [
        1.0,
        1.0
      ],
      "min": [
        0.0,
        0.005000010132789612
      ],
      "type": "VEC2"
    },
    {
      "bufferView": 0,
      "byteOffset": 528,
      "componentType": 5125,
      "count": 132,
      "type": "SCALAR"
    }
  ],
  "asset": {
    "extras": {
      "author": "DJMaesen (https://sketchfab.com/bumstrum)",
      "license": "CC-BY-4.0 (http://creativecommons.org/licenses/by/4.0/)",
      "source": "https://sketchfab.com/3d-models/crates-897d146a1ed84de28ce1b7f2c30bdac1",
      "title": "Crates"
    },
    "generator": "Sketchfab-16.82.0",
    "version": "2.0"
  },
  "bufferViews": [
    {
      "buffer": 0,
      "byteLength": 1056,
      "name": "floatBufferViews",
      "target": 34963
    },
    {
      "buffer": 0,
      "byteLength": 3120,
      "byteOffset": 1056,
      "byteStride": 8,
      "name": "floatBufferViews",
      "target": 34962
    },
    {
      "buffer": 0,
      "byteLength": 3120,
      "byteOffset": 4176,
      "byteStride": 12,
      "name": "floatBufferViews",
      "target": 34962
    },
    {
      "buffer": 0,
      "byteLength": 2080,
      "byteOffset": 7296,
      "byteStride": 16,
      "name": "floatBufferViews",
      "target": 34962
    }
  ],
  "buffers": [
    {
      "byteLength": 9376,
      "uri": "scene.bin"
    }
  ],
  "images": [
    {
      "uri": "textures/crate_baseColor.png"
    },
    {
      "uri": "textures/crate_metallicRoughness.png"
    },
    {
      "uri": "textures/crate_normal.png"
    }
  ],
  "materials": [
    {
      "name": "crate",
      "normalTexture": {
        "index": 2
      },
      "pbrMetallicRoughness": {
        "baseColorTexture": {
          "index": 0
        },
        "metallicRoughnessTexture": {
          "index": 1
        }
      }
    }
  ],
  "meshes": [
    {
      "name": "Cube_crate_0",
      "primitives": [
        {
          "attributes": {
            "NORMAL": 1,
            "POSITION": 0,
            "TANGENT": 2,
            "TEXCOORD_0": 3,
            "TEXCOORD_1": 4,
            "TEXCOORD_2": 5
          },
          "indices": 6,
          "material": 0,
          "mode": 4
        }
      ]
    },
    {
      "name": "Cube.001_crate_0",
      "primitives": [
        {
          "attributes": {
            "NORMAL": 8,
            "POSITION": 7,
            "TANGENT": 9,
            "TEXCOORD_0": 10,
            "TEXCOORD_1": 11,
            "TEXCOORD_2": 12
          },
          "indices": 13,
          "material": 0,
          "mode": 4
        }
      ]
    }
  ],
  "nodes": [
    {
      "children": [
        1
      ],
      "matrix": [
        1.0,
        0.0,
        0.0,
        0.0,
        0.0,
        2.220446049250313e-16,
        -1.0,
        0.0,
        0.0,
        1.0,
        2.220446049250313e-16,
        0.0,
        0.0,
        0.0,
        0.0,
        1.0
      ],
      "name": "Sketchfab_model"
    },
    {
      "children": [
        2
      ],
      "matrix": [
        0.009999999776482582,
        0.0,
        0.0,
        0.0,
        0.0,
        0.0,
        0.009999999776482582,
        0.0,
        0.0,
        -0.009999999776482582,
        0.0,
        0.0,
        0.0,
        0.0,
        0.0,
        1.0
      ],
      "name": "92a80cb8ba05406f8b5a42e5232debc9.fbx"
    },
    {
      "children": [
        3,
        5
      ],
      "name": "RootNode"
    },
    {
      "children": [
        4
      ],
      "matrix": [
        100.0,
        0.0,
        0.0,
        0.0,
        0.0,
        -1.629206793918314e-05,
        -99.99999999999868,
        0.0,
        0.0,
        99.99999999999868,
        -1.629206793918314e-05,
        0.0,
        0.0,
        102.39755249023438,
        0.0,
        1.0
      ],
      "name": "Cube"
    },
    {
      "mesh": 0,
      "name": "Cube_crate_0"
    },
    {
      "children": [
        6
      ],
      "matrix": [
        -98.36630721901376,
        7.61842537666535e-07,
        18.001933343244065,
        0.0,
        18.00193334324407,
        7.410365809867869e-06,
        98.36630721901348,
        0.0,
        -5.84612744325419e-07,
        99.99999999999972,
        -7.4264495886211535e-06,
        0.0,
        0.0,
        302.9302673339844,
        0.0,
        1.0
      ],
      "name": "Cube.001"
    },
    {
      "mesh": 1,
      "name": "Cube.001_crate_0"
    }
  ],
  "samplers": [
    {
      "magFilter": 9729,
      "minFilter": 9987,
      "wrapS": 10497,
      "wrapT": 10497
    }
  ],
  "scene": 0,
  "scenes": [
    {
      "name": "Sketchfab_Scene",
      "nodes": [
        0
      ]
    }
  ],
  "textures": [
    {
      "sampler": 0,
      "source": 0
    },
    {
      "sampler": 0,
      "source": 1
    },
    {
      "sampler": 0,
      "source": 2
    }
  ]
}
